# MagicaVoxel @ Ephtracy

# group
o head

# material
mtllib head.mtl
usemtl palette

# normals
vn -1 0 0
vn 1 0 0
vn 0 0 1
vn 0 0 -1
vn 0 -1 0
vn 0 1 0

# texcoords
vt 0.0332031 0.5
vt 0.228516 0.5
vt 0.638672 0.5
vt 0.873047 0.5
vt 0.958984 0.5

# verts
v -0.5 0.3 0.1
v -0.5 0.3 -0.1
v -0.5 0.5 0.1
v -0.5 0.5 -0.1
v -0.4 0.2 0.2
v -0.4 0.2 -0.1
v -0.4 0.2 -0.4
v -0.4 0.3 0.1
v -0.4 0.3 -0.1
v -0.4 0.4 0.2
v -0.4 0.4 0.1
v -0.4 0.5 0.1
v -0.4 0.5 -0.1
v -0.4 0.8 0.2
v -0.4 0.8 -0.4
v -0.3 0 0.2
v -0.3 0 -0.1
v -0.3 0.1 0.3
v -0.3 0.1 0.2
v -0.3 0.1 -0.1
v -0.3 0.1 -0.2
v -0.3 0.1 -0.3
v -0.3 0.2 0.2
v -0.3 0.2 -0.1
v -0.3 0.2 -0.2
v -0.3 0.2 -0.3
v -0.3 0.4 0.3
v -0.3 0.4 0.2
v -0.3 0.5 0.4
v -0.3 0.5 0.3
v -0.3 0.5 0.2
v -0.3 0.6 0.4
v -0.3 0.6 0.3
v -0.3 0.7 0.3
v -0.3 0.7 0.2
v -0.3 0.8 0.2
v -0.3 0.8 -0.3
v -0.3 0.9 0.2
v -0.3 0.9 -0.3
v -0.2 0 0.3
v -0.2 0 0.2
v -0.2 0 -0.1
v -0.2 0 -0.2
v -0.2 0.1 0.3
v -0.2 0.1 0.2
v -0.2 0.1 -0.1
v -0.2 0.1 -0.2
v -0.2 0.7 0.3
v -0.2 0.7 0.2
v -0.2 0.8 0.3
v -0.2 0.8 0.2
v -0.1 0.3 0.4
v -0.1 0.3 0.3
v -0.1 0.4 0.4
v -0.1 0.4 0.3
v 0.1 0.5 0.4
v 0.1 0.5 0.3
v 0.1 0.6 0.4
v 0.1 0.6 0.3
v -0.1 0.5 0.4
v -0.1 0.5 0.3
v -0.1 0.6 0.4
v -0.1 0.6 0.3
v 0.1 0.3 0.4
v 0.1 0.3 0.3
v 0.1 0.4 0.4
v 0.1 0.4 0.3
v 0.2 0 0.3
v 0.2 0 0.2
v 0.2 0 -0.1
v 0.2 0 -0.2
v 0.2 0.1 0.3
v 0.2 0.1 0.2
v 0.2 0.1 -0.1
v 0.2 0.1 -0.2
v 0.2 0.7 0.3
v 0.2 0.7 0.2
v 0.2 0.8 0.3
v 0.2 0.8 0.2
v 0.3 0 0.2
v 0.3 0 -0.1
v 0.3 0.1 0.3
v 0.3 0.1 0.2
v 0.3 0.1 -0.1
v 0.3 0.1 -0.2
v 0.3 0.1 -0.3
v 0.3 0.2 0.2
v 0.3 0.2 -0.1
v 0.3 0.2 -0.2
v 0.3 0.2 -0.3
v 0.3 0.4 0.3
v 0.3 0.4 0.2
v 0.3 0.5 0.4
v 0.3 0.5 0.3
v 0.3 0.5 0.2
v 0.3 0.6 0.4
v 0.3 0.6 0.3
v 0.3 0.7 0.3
v 0.3 0.7 0.2
v 0.3 0.8 0.2
v 0.3 0.8 -0.3
v 0.3 0.9 0.2
v 0.3 0.9 -0.3
v 0.4 0.2 0.2
v 0.4 0.2 -0.1
v 0.4 0.2 -0.4
v 0.4 0.3 0.1
v 0.4 0.3 -0.1
v 0.4 0.4 0.2
v 0.4 0.4 0.1
v 0.4 0.5 0.1
v 0.4 0.5 -0.1
v 0.4 0.8 0.2
v 0.4 0.8 -0.4
v 0.5 0.3 0.1
v 0.5 0.3 -0.1
v 0.5 0.5 0.1
v 0.5 0.5 -0.1
v -0.3 0.5 0.4
v -0.3 0.6 0.4
v -0.1 0.3 0.4
v -0.1 0.4 0.4
v -0.1 0.5 0.4
v -0.1 0.6 0.4
v 0.1 0.3 0.4
v 0.1 0.4 0.4
v 0.1 0.5 0.4
v 0.1 0.6 0.4
v 0.3 0.5 0.4
v 0.3 0.6 0.4
v -0.3 0.1 0.3
v -0.3 0.4 0.3
v -0.3 0.5 0.3
v -0.3 0.6 0.3
v -0.3 0.7 0.3
v -0.2 0 0.3
v -0.2 0.1 0.3
v -0.2 0.4 0.3
v -0.2 0.5 0.3
v -0.2 0.7 0.3
v -0.2 0.8 0.3
v -0.1 0.1 0.3
v -0.1 0.2 0.3
v -0.1 0.3 0.3
v -0.1 0.4 0.3
v -0.1 0.5 0.3
v -0.1 0.6 0.3
v 0.1 0.1 0.3
v 0.1 0.2 0.3
v 0.1 0.3 0.3
v 0.1 0.4 0.3
v 0.1 0.5 0.3
v 0.1 0.6 0.3
v 0.2 0 0.3
v 0.2 0.1 0.3
v 0.2 0.4 0.3
v 0.2 0.5 0.3
v 0.2 0.7 0.3
v 0.2 0.8 0.3
v 0.3 0.1 0.3
v 0.3 0.4 0.3
v 0.3 0.5 0.3
v 0.3 0.6 0.3
v 0.3 0.7 0.3
v -0.4 0.2 0.2
v -0.4 0.4 0.2
v -0.4 0.8 0.2
v -0.3 0 0.2
v -0.3 0.1 0.2
v -0.3 0.2 0.2
v -0.3 0.4 0.2
v -0.3 0.5 0.2
v -0.3 0.7 0.2
v -0.3 0.8 0.2
v -0.3 0.9 0.2
v -0.2 0 0.2
v -0.2 0.1 0.2
v -0.2 0.7 0.2
v -0.2 0.8 0.2
v 0.2 0 0.2
v 0.2 0.1 0.2
v 0.2 0.7 0.2
v 0.2 0.8 0.2
v 0.3 0 0.2
v 0.3 0.1 0.2
v 0.3 0.2 0.2
v 0.3 0.4 0.2
v 0.3 0.5 0.2
v 0.3 0.7 0.2
v 0.3 0.8 0.2
v 0.3 0.9 0.2
v 0.4 0.2 0.2
v 0.4 0.4 0.2
v 0.4 0.8 0.2
v -0.5 0.3 0.1
v -0.5 0.5 0.1
v -0.4 0.3 0.1
v -0.4 0.4 0.1
v -0.4 0.5 0.1
v 0.4 0.3 0.1
v 0.4 0.4 0.1
v 0.4 0.5 0.1
v 0.5 0.3 0.1
v 0.5 0.5 0.1
v -0.5 0.3 -0.1
v -0.5 0.5 -0.1
v -0.4 0.3 -0.1
v -0.4 0.5 -0.1
v -0.3 0 -0.1
v -0.3 0.1 -0.1
v -0.2 0 -0.1
v -0.2 0.1 -0.1
v 0.2 0 -0.1
v 0.2 0.1 -0.1
v 0.3 0 -0.1
v 0.3 0.1 -0.1
v 0.4 0.3 -0.1
v 0.4 0.5 -0.1
v 0.5 0.3 -0.1
v 0.5 0.5 -0.1
v -0.2 0 -0.2
v -0.2 0.1 -0.2
v 0.2 0 -0.2
v 0.2 0.1 -0.2
v -0.3 0.1 -0.3
v -0.3 0.2 -0.3
v -0.3 0.8 -0.3
v -0.3 0.9 -0.3
v 0.3 0.1 -0.3
v 0.3 0.2 -0.3
v 0.3 0.8 -0.3
v 0.3 0.9 -0.3
v -0.4 0.2 -0.4
v -0.4 0.8 -0.4
v 0.4 0.2 -0.4
v 0.4 0.8 -0.4
v -0.2 0 0.3
v 0.2 0 0.3
v -0.3 0 0.2
v -0.2 0 0.2
v 0.2 0 0.2
v 0.3 0 0.2
v -0.3 0 -0.1
v -0.2 0 -0.1
v 0.2 0 -0.1
v 0.3 0 -0.1
v -0.2 0 -0.2
v 0.2 0 -0.2
v -0.3 0.1 0.3
v -0.2 0.1 0.3
v 0.2 0.1 0.3
v 0.3 0.1 0.3
v -0.3 0.1 0.2
v -0.2 0.1 0.2
v 0.2 0.1 0.2
v 0.3 0.1 0.2
v -0.3 0.1 -0.1
v -0.2 0.1 -0.1
v 0.2 0.1 -0.1
v 0.3 0.1 -0.1
v -0.3 0.1 -0.2
v -0.2 0.1 -0.2
v 0.2 0.1 -0.2
v 0.3 0.1 -0.2
v -0.3 0.1 -0.3
v 0.3 0.1 -0.3
v -0.4 0.2 0.2
v -0.3 0.2 0.2
v 0.3 0.2 0.2
v 0.4 0.2 0.2
v -0.4 0.2 -0.1
v -0.3 0.2 -0.1
v 0.3 0.2 -0.1
v 0.4 0.2 -0.1
v -0.3 0.2 -0.2
v 0.3 0.2 -0.2
v -0.3 0.2 -0.3
v 0.3 0.2 -0.3
v -0.4 0.2 -0.4
v 0.4 0.2 -0.4
v -0.1 0.3 0.4
v 0.1 0.3 0.4
v -0.1 0.3 0.3
v 0.1 0.3 0.3
v -0.5 0.3 0.1
v -0.4 0.3 0.1
v 0.4 0.3 0.1
v 0.5 0.3 0.1
v -0.5 0.3 -0.1
v -0.4 0.3 -0.1
v 0.4 0.3 -0.1
v 0.5 0.3 -0.1
v -0.3 0.5 0.4
v -0.1 0.5 0.4
v 0.1 0.5 0.4
v 0.3 0.5 0.4
v -0.3 0.5 0.3
v -0.2 0.5 0.3
v -0.1 0.5 0.3
v 0.1 0.5 0.3
v 0.2 0.5 0.3
v 0.3 0.5 0.3
v -0.1 0.4 0.4
v 0.1 0.4 0.4
v -0.1 0.4 0.3
v 0.1 0.4 0.3
v -0.5 0.5 0.1
v -0.4 0.5 0.1
v 0.4 0.5 0.1
v 0.5 0.5 0.1
v -0.5 0.5 -0.1
v -0.4 0.5 -0.1
v 0.4 0.5 -0.1
v 0.5 0.5 -0.1
v -0.3 0.6 0.4
v -0.1 0.6 0.4
v 0.1 0.6 0.4
v 0.3 0.6 0.4
v -0.3 0.6 0.3
v -0.1 0.6 0.3
v 0.1 0.6 0.3
v 0.3 0.6 0.3
v -0.3 0.7 0.3
v -0.2 0.7 0.3
v 0.2 0.7 0.3
v 0.3 0.7 0.3
v -0.3 0.7 0.2
v -0.2 0.7 0.2
v 0.2 0.7 0.2
v 0.3 0.7 0.2
v -0.2 0.8 0.3
v 0.2 0.8 0.3
v -0.4 0.8 0.2
v -0.3 0.8 0.2
v -0.2 0.8 0.2
v 0.2 0.8 0.2
v 0.3 0.8 0.2
v 0.4 0.8 0.2
v -0.3 0.8 -0.3
v 0.3 0.8 -0.3
v -0.4 0.8 -0.4
v 0.4 0.8 -0.4
v -0.3 0.9 0.2
v 0.3 0.9 0.2
v -0.3 0.9 -0.3
v 0.3 0.9 -0.3

# faces
f 3/1/1 2/1/1 1/1/1
f 4/1/1 2/1/1 3/1/1
f 8/1/1 6/1/1 5/1/1
f 9/4/1 7/4/1 6/4/1
f 9/1/1 6/1/1 8/1/1
f 10/1/1 8/1/1 5/1/1
f 11/1/1 8/1/1 10/1/1
f 12/4/1 11/4/1 10/4/1
f 13/4/1 7/4/1 9/4/1
f 14/4/1 12/4/1 10/4/1
f 14/4/1 13/4/1 12/4/1
f 15/4/1 7/4/1 13/4/1
f 15/4/1 13/4/1 14/4/1
f 19/1/1 17/1/1 16/1/1
f 20/1/1 17/1/1 19/1/1
f 23/1/1 19/1/1 18/1/1
f 23/1/1 20/1/1 19/1/1
f 23/1/1 21/1/1 20/1/1
f 24/1/1 21/1/1 23/1/1
f 25/4/1 22/4/1 21/4/1
f 25/1/1 21/1/1 24/1/1
f 26/4/1 22/4/1 25/4/1
f 27/1/1 23/1/1 18/1/1
f 28/1/1 23/1/1 27/1/1
f 30/5/1 28/5/1 27/5/1
f 31/5/1 28/5/1 30/5/1
f 32/4/1 30/4/1 29/4/1
f 33/1/1 31/1/1 30/1/1
f 33/4/1 30/4/1 32/4/1
f 34/1/1 31/1/1 33/1/1
f 35/1/1 31/1/1 34/1/1
f 38/4/1 37/4/1 36/4/1
f 39/4/1 37/4/1 38/4/1
f 44/1/1 41/1/1 40/1/1
f 45/1/1 41/1/1 44/1/1
f 46/1/1 43/1/1 42/1/1
f 47/1/1 43/1/1 46/1/1
f 50/1/1 49/1/1 48/1/1
f 51/1/1 49/1/1 50/1/1
f 54/1/1 53/1/1 52/1/1
f 55/1/1 53/1/1 54/1/1
f 58/4/1 57/4/1 56/4/1
f 59/4/1 57/4/1 58/4/1
f 60/4/2 61/4/2 62/4/2
f 62/4/2 61/4/2 63/4/2
f 64/1/2 65/1/2 66/1/2
f 66/1/2 65/1/2 67/1/2
f 68/1/2 69/1/2 72/1/2
f 72/1/2 69/1/2 73/1/2
f 70/1/2 71/1/2 74/1/2
f 74/1/2 71/1/2 75/1/2
f 76/1/2 77/1/2 78/1/2
f 78/1/2 77/1/2 79/1/2
f 80/1/2 81/1/2 83/1/2
f 83/1/2 81/1/2 84/1/2
f 82/1/2 83/1/2 87/1/2
f 83/1/2 84/1/2 87/1/2
f 84/1/2 85/1/2 87/1/2
f 87/1/2 85/1/2 88/1/2
f 85/4/2 86/4/2 89/4/2
f 88/1/2 85/1/2 89/1/2
f 89/4/2 86/4/2 90/4/2
f 82/1/2 87/1/2 91/1/2
f 91/1/2 87/1/2 92/1/2
f 91/5/2 92/5/2 94/5/2
f 94/5/2 92/5/2 95/5/2
f 93/4/2 94/4/2 96/4/2
f 94/1/2 95/1/2 97/1/2
f 96/4/2 94/4/2 97/4/2
f 97/1/2 95/1/2 98/1/2
f 98/1/2 95/1/2 99/1/2
f 100/4/2 101/4/2 102/4/2
f 102/4/2 101/4/2 103/4/2
f 104/1/2 105/1/2 107/1/2
f 105/4/2 106/4/2 108/4/2
f 107/1/2 105/1/2 108/1/2
f 104/1/2 107/1/2 109/1/2
f 109/1/2 107/1/2 110/1/2
f 109/4/2 110/4/2 111/4/2
f 108/4/2 106/4/2 112/4/2
f 109/4/2 111/4/2 113/4/2
f 111/4/2 112/4/2 113/4/2
f 112/4/2 106/4/2 114/4/2
f 113/4/2 112/4/2 114/4/2
f 115/1/2 116/1/2 117/1/2
f 117/1/2 116/1/2 118/1/2
f 123/4/3 120/4/3 119/4/3
f 124/4/3 120/4/3 123/4/3
f 125/1/3 122/1/3 121/1/3
f 126/1/3 122/1/3 125/1/3
f 129/4/3 128/4/3 127/4/3
f 130/4/3 128/4/3 129/4/3
f 137/1/3 132/1/3 131/1/3
f 138/5/3 133/5/3 132/5/3
f 138/1/3 132/1/3 137/1/3
f 139/5/3 133/5/3 138/5/3
f 140/1/3 135/1/3 134/1/3
f 142/1/3 137/1/3 136/1/3
f 142/1/3 138/1/3 137/1/3
f 143/1/3 138/1/3 142/1/3
f 144/1/3 138/1/3 143/1/3
f 145/3/3 139/3/3 138/3/3
f 145/1/3 138/1/3 144/1/3
f 146/3/3 139/3/3 145/3/3
f 147/1/3 141/1/3 140/1/3
f 147/1/3 140/1/3 134/1/3
f 148/1/3 142/1/3 136/1/3
f 148/2/3 143/2/3 142/2/3
f 149/1/3 144/1/3 143/1/3
f 149/2/3 143/2/3 148/2/3
f 150/1/3 144/1/3 149/1/3
f 151/1/3 146/1/3 145/1/3
f 151/1/3 147/1/3 146/1/3
f 152/1/3 147/1/3 151/1/3
f 153/1/3 141/1/3 147/1/3
f 153/1/3 147/1/3 152/1/3
f 154/1/3 148/1/3 136/1/3
f 154/1/3 150/1/3 149/1/3
f 154/1/3 151/1/3 150/1/3
f 154/1/3 149/1/3 148/1/3
f 155/1/3 151/1/3 154/1/3
f 156/3/3 152/3/3 151/3/3
f 156/1/3 151/1/3 155/1/3
f 157/3/3 152/3/3 156/3/3
f 158/1/3 141/1/3 153/1/3
f 159/1/3 141/1/3 158/1/3
f 160/1/3 156/1/3 155/1/3
f 161/5/3 157/5/3 156/5/3
f 161/1/3 156/1/3 160/1/3
f 162/5/3 157/5/3 161/5/3
f 163/1/3 158/1/3 153/1/3
f 164/1/3 158/1/3 163/1/3
f 170/1/3 166/1/3 165/1/3
f 171/4/3 167/4/3 166/4/3
f 171/1/3 166/1/3 170/1/3
f 172/4/3 167/4/3 171/4/3
f 173/4/3 167/4/3 172/4/3
f 174/4/3 167/4/3 173/4/3
f 176/1/3 169/1/3 168/1/3
f 177/1/3 169/1/3 176/1/3
f 178/4/3 175/4/3 174/4/3
f 178/4/3 174/4/3 173/4/3
f 179/4/3 175/4/3 178/4/3
f 183/4/3 175/4/3 179/4/3
f 184/1/3 181/1/3 180/1/3
f 185/1/3 181/1/3 184/1/3
f 189/4/3 183/4/3 182/4/3
f 190/4/3 175/4/3 183/4/3
f 190/4/3 183/4/3 189/4/3
f 191/4/3 175/4/3 190/4/3
f 192/1/3 187/1/3 186/1/3
f 193/4/3 188/4/3 187/4/3
f 193/1/3 187/1/3 192/1/3
f 193/4/3 189/4/3 188/4/3
f 193/4/3 190/4/3 189/4/3
f 194/4/3 190/4/3 193/4/3
f 197/1/3 196/1/3 195/1/3
f 198/1/3 196/1/3 197/1/3
f 199/1/3 196/1/3 198/1/3
f 203/1/3 201/1/3 200/1/3
f 203/1/3 202/1/3 201/1/3
f 204/1/3 202/1/3 203/1/3
f 205/1/4 206/1/4 207/1/4
f 207/1/4 206/1/4 208/1/4
f 209/1/4 210/1/4 211/1/4
f 211/1/4 210/1/4 212/1/4
f 213/1/4 214/1/4 215/1/4
f 215/1/4 214/1/4 216/1/4
f 217/1/4 218/1/4 219/1/4
f 219/1/4 218/1/4 220/1/4
f 221/1/4 222/1/4 223/1/4
f 223/1/4 222/1/4 224/1/4
f 225/4/4 226/4/4 229/4/4
f 229/4/4 226/4/4 230/4/4
f 227/4/4 228/4/4 231/4/4
f 231/4/4 228/4/4 232/4/4
f 233/4/4 234/4/4 235/4/4
f 235/4/4 234/4/4 236/4/4
f 240/1/5 238/1/5 237/1/5
f 241/1/5 238/1/5 240/1/5
f 243/1/5 240/1/5 239/1/5
f 243/1/5 242/1/5 241/1/5
f 243/1/5 241/1/5 240/1/5
f 244/1/5 242/1/5 243/1/5
f 245/1/5 242/1/5 244/1/5
f 246/1/5 242/1/5 245/1/5
f 247/1/5 245/1/5 244/1/5
f 248/1/5 245/1/5 247/1/5
f 253/1/5 250/1/5 249/1/5
f 254/1/5 250/1/5 253/1/5
f 255/1/5 252/1/5 251/1/5
f 256/1/5 252/1/5 255/1/5
f 261/1/5 258/1/5 257/1/5
f 262/1/5 258/1/5 261/1/5
f 263/1/5 260/1/5 259/1/5
f 264/1/5 260/1/5 263/1/5
f 265/4/5 262/4/5 261/4/5
f 265/4/5 263/4/5 262/4/5
f 265/4/5 264/4/5 263/4/5
f 266/4/5 264/4/5 265/4/5
f 271/1/5 268/1/5 267/1/5
f 272/1/5 268/1/5 271/1/5
f 273/1/5 270/1/5 269/1/5
f 274/1/5 270/1/5 273/1/5
f 275/4/5 272/4/5 271/4/5
f 276/4/5 274/4/5 273/4/5
f 277/4/5 275/4/5 271/4/5
f 278/4/5 274/4/5 276/4/5
f 279/4/5 277/4/5 271/4/5
f 279/4/5 278/4/5 277/4/5
f 280/4/5 274/4/5 278/4/5
f 280/4/5 278/4/5 279/4/5
f 283/1/5 282/1/5 281/1/5
f 284/1/5 282/1/5 283/1/5
f 289/1/5 286/1/5 285/1/5
f 290/1/5 286/1/5 289/1/5
f 291/1/5 288/1/5 287/1/5
f 292/1/5 288/1/5 291/1/5
f 297/4/5 294/4/5 293/4/5
f 298/4/5 294/4/5 297/4/5
f 299/4/5 294/4/5 298/4/5
f 300/4/5 296/4/5 295/4/5
f 301/4/5 296/4/5 300/4/5
f 302/4/5 296/4/5 301/4/5
f 303/1/6 304/1/6 305/1/6
f 305/1/6 304/1/6 306/1/6
f 307/1/6 308/1/6 311/1/6
f 311/1/6 308/1/6 312/1/6
f 309/1/6 310/1/6 313/1/6
f 313/1/6 310/1/6 314/1/6
f 315/4/6 316/4/6 319/4/6
f 319/4/6 316/4/6 320/4/6
f 317/4/6 318/4/6 321/4/6
f 321/4/6 318/4/6 322/4/6
f 323/1/6 324/1/6 327/1/6
f 327/1/6 324/1/6 328/1/6
f 325/1/6 326/1/6 329/1/6
f 329/1/6 326/1/6 330/1/6
f 331/1/6 332/1/6 335/1/6
f 335/1/6 332/1/6 336/1/6
f 333/4/6 334/4/6 339/4/6
f 337/4/6 338/4/6 340/4/6
f 333/4/6 339/4/6 341/4/6
f 339/4/6 340/4/6 341/4/6
f 340/4/6 338/4/6 342/4/6
f 341/4/6 340/4/6 342/4/6
f 343/4/6 344/4/6 345/4/6
f 345/4/6 344/4/6 346/4/6
